<?xml version="1.0" standalone="no"?>
<!DOCTYPE svg PUBLIC "-//W3C//DTD SVG 20010904//EN"
 "http://www.w3.org/TR/2001/REC-SVG-20010904/DTD/svg10.dtd">
<svg version="1.0" xmlns="http://www.w3.org/2000/svg"
 width="632.000000pt" height="637.000000pt" viewBox="0 0 632.000000 637.000000"
 preserveAspectRatio="xMidYMid meet">

<g transform="translate(0.000000,637.000000) scale(0.100000,-0.100000)"
fill="#000000" stroke="none">
<path d="M2978 6344 c-4 -3 -62 -10 -130 -15 -125 -8 -204 -20 -313 -44 -173
-39 -356 -89 -387 -106 -10 -5 -25 -9 -33 -9 -8 0 -23 -4 -33 -9 -18 -9 -58
-26 -102 -44 -14 -5 -33 -13 -42 -18 -10 -5 -25 -9 -33 -9 -8 0 -15 -4 -15
-10 0 -5 -6 -10 -14 -10 -8 0 -39 -13 -70 -29 -31 -17 -56 -27 -56 -24 0 3 -9
-2 -20 -12 -11 -10 -20 -14 -20 -10 0 4 -8 1 -17 -7 -10 -8 -34 -22 -53 -32
-19 -9 -48 -26 -65 -36 -16 -11 -39 -24 -50 -29 -12 -5 -27 -16 -34 -25 -7 -9
-17 -13 -22 -10 -5 3 -12 -2 -15 -10 -3 -9 -12 -16 -20 -16 -8 0 -28 -12 -45
-27 -17 -16 -34 -28 -38 -28 -3 0 -17 -10 -31 -22 -13 -13 -28 -23 -32 -23 -5
0 -27 -17 -49 -37 -23 -21 -44 -38 -48 -38 -4 0 -31 -22 -60 -50 -29 -27 -56
-51 -61 -53 -20 -7 -300 -295 -300 -308 0 -5 -11 -18 -25 -28 -14 -10 -25 -24
-25 -30 0 -6 -19 -31 -43 -56 -23 -25 -48 -58 -56 -73 -8 -15 -18 -27 -23 -27
-4 0 -8 -6 -8 -13 0 -7 -10 -24 -23 -37 -12 -14 -22 -28 -22 -32 0 -4 -9 -18
-20 -30 -11 -13 -20 -26 -20 -30 0 -4 -8 -17 -18 -28 -9 -11 -17 -27 -17 -35
0 -8 -3 -15 -8 -15 -8 0 -23 -26 -42 -72 -7 -16 -16 -28 -21 -28 -5 0 -9 -9
-9 -20 0 -11 -4 -20 -10 -20 -5 0 -10 -9 -10 -20 0 -11 -4 -20 -10 -20 -5 0
-10 -9 -10 -20 0 -11 -4 -20 -10 -20 -5 0 -10 -9 -10 -20 0 -11 -4 -20 -10
-20 -5 0 -10 -7 -10 -15 0 -8 -4 -23 -9 -33 -30 -59 -70 -159 -97 -242 -8 -25
-19 -54 -24 -65 -8 -18 -40 -127 -41 -140 0 -2 -5 -19 -11 -37 -18 -60 -52
-213 -62 -286 -3 -20 -11 -71 -18 -112 -9 -50 -13 -192 -13 -430 0 -336 3
-380 31 -517 3 -16 0 -23 -11 -23 -11 0 -15 -6 -10 -19 3 -10 7 -38 10 -62 8
-93 26 -154 75 -255 27 -57 55 -125 60 -151 6 -27 18 -68 26 -93 9 -25 17 -63
18 -86 1 -22 12 -60 24 -85 12 -25 22 -50 22 -56 0 -5 11 -22 25 -37 14 -15
25 -35 25 -45 0 -10 11 -31 25 -47 14 -16 25 -33 25 -38 0 -5 11 -24 25 -42
14 -18 25 -38 25 -44 0 -7 8 -9 20 -5 12 4 20 2 20 -5 0 -7 9 -25 21 -41 14
-20 16 -29 7 -29 -7 0 -4 -6 7 -12 27 -16 44 -40 38 -55 -3 -7 2 -13 11 -13 9
0 16 -6 16 -12 1 -7 14 -29 30 -48 17 -19 30 -38 30 -42 0 -4 18 -27 40 -50
22 -24 40 -46 40 -50 0 -4 18 -26 40 -50 22 -24 40 -46 40 -49 0 -9 245 -256
258 -260 6 -2 39 -31 73 -64 34 -33 66 -60 70 -60 4 0 25 -17 48 -37 22 -21
44 -38 48 -38 4 0 22 -12 38 -28 17 -15 42 -33 58 -41 15 -8 27 -18 27 -23 0
-4 6 -8 13 -8 7 0 23 -9 35 -20 12 -11 28 -20 37 -20 8 0 15 -4 15 -10 0 -5 6
-10 13 -10 7 0 23 -9 35 -20 12 -11 28 -20 37 -20 8 0 15 -4 15 -10 0 -5 9
-10 20 -10 11 0 20 -3 20 -8 0 -4 15 -13 33 -21 17 -8 40 -21 51 -30 10 -9 20
-15 22 -13 3 2 39 -13 82 -33 73 -35 91 -43 145 -64 12 -4 33 -13 47 -19 14
-5 41 -15 60 -22 19 -7 44 -15 55 -20 37 -14 150 -49 175 -54 14 -3 41 -10 60
-16 134 -41 449 -90 582 -90 42 0 79 -3 81 -7 5 -8 252 -1 407 11 168 13 398
52 510 86 19 6 46 13 60 16 29 6 147 42 175 54 11 4 36 13 55 20 19 7 45 16
58 21 12 5 32 13 45 18 47 18 75 30 149 66 43 20 79 35 82 33 2 -2 13 5 23 15
11 9 22 15 25 12 3 -3 11 1 18 10 7 8 19 15 26 15 8 0 14 5 14 10 0 6 9 10 20
10 11 0 20 5 20 10 0 6 7 10 15 10 9 0 25 9 37 20 12 11 28 20 35 20 7 0 13 5
13 10 0 6 9 10 20 10 11 0 20 4 20 8 0 5 12 15 28 23 15 8 36 22 46 32 11 9
24 17 28 17 5 0 23 13 41 30 18 16 36 30 40 30 4 0 22 13 40 30 18 16 35 30
39 30 3 0 39 30 78 68 40 37 76 69 82 71 12 4 238 231 238 240 0 3 27 34 60
69 33 35 60 68 60 74 0 6 8 18 18 27 9 9 28 33 42 53 14 21 28 38 33 38 4 0 7
6 7 13 0 7 10 24 22 37 13 14 23 28 23 32 0 4 7 15 15 25 9 10 15 20 15 23 0
3 10 19 23 37 12 17 22 36 22 42 0 6 3 11 8 11 8 0 23 26 42 73 7 15 16 27 21
27 5 0 9 9 9 20 0 11 5 20 10 20 6 0 10 9 10 20 0 11 5 20 10 20 6 0 10 9 10
20 0 11 5 20 10 20 6 0 10 9 10 20 0 11 5 20 10 20 6 0 10 7 10 15 0 8 4 23 9
33 18 34 49 108 61 142 15 43 24 67 38 100 25 57 99 325 121 435 43 215 46
255 46 615 0 238 -4 380 -13 430 -7 41 -15 93 -18 115 -3 22 -9 57 -13 77 -6
24 -5 41 3 49 8 9 8 10 0 6 -7 -4 -14 5 -18 24 -9 45 -7 56 5 39 9 -12 10 -12
5 3 -3 10 -6 21 -6 23 0 3 -4 3 -9 0 -4 -3 -9 23 -10 57 -1 34 -5 76 -9 92 -9
32 -32 46 -32 19 0 -9 -3 -15 -6 -11 -4 3 -3 14 1 24 10 23 9 35 -13 103 -9
30 -23 59 -29 63 -7 4 -13 20 -13 34 0 18 -4 24 -15 19 -10 -4 -17 3 -21 22
-4 15 -11 32 -16 39 -5 7 -7 16 -4 22 3 5 -1 11 -9 15 -8 3 -15 14 -15 25 0
11 -4 23 -10 26 -5 3 -10 15 -10 26 0 10 -4 19 -10 19 -5 0 -10 9 -10 20 0 11
-4 20 -10 20 -5 0 -10 9 -10 20 0 11 -4 20 -10 20 -5 0 -10 9 -10 20 0 11 -4
20 -10 20 -5 0 -10 9 -10 20 0 11 -4 20 -9 20 -5 0 -14 12 -21 28 -19 46 -34
72 -42 72 -5 0 -8 7 -8 15 0 8 -8 24 -17 35 -10 11 -18 24 -18 28 0 4 -9 17
-20 30 -11 12 -20 26 -20 30 0 4 -10 18 -22 32 -13 13 -23 29 -23 35 0 6 -9
17 -20 25 -11 8 -20 20 -20 27 0 7 -18 31 -40 55 -22 24 -40 47 -40 51 0 5
-24 33 -52 64 -29 30 -56 61 -61 68 -9 18 -235 243 -247 247 -5 2 -32 26 -61
53 -29 28 -56 50 -60 50 -4 0 -25 17 -48 38 -22 20 -44 37 -49 37 -4 0 -19 10
-32 23 -14 12 -28 22 -31 22 -4 0 -21 12 -38 28 -17 15 -37 27 -45 27 -8 0
-17 7 -20 16 -3 8 -10 13 -14 10 -5 -3 -20 5 -33 17 -13 12 -27 22 -31 22 -4
0 -17 8 -28 18 -11 9 -27 17 -35 17 -8 0 -15 3 -15 8 0 4 -15 13 -32 21 -18 8
-41 21 -50 29 -10 8 -18 11 -18 7 0 -4 -9 0 -20 10 -11 10 -20 15 -20 12 0 -3
-25 7 -56 24 -31 16 -62 29 -70 29 -8 0 -14 5 -14 10 0 6 -7 10 -15 10 -8 0
-23 4 -33 9 -9 5 -29 14 -44 20 -16 6 -40 16 -55 22 -16 6 -36 15 -45 20 -10
5 -25 9 -33 9 -8 0 -23 4 -33 9 -15 8 -88 31 -202 62 -85 23 -239 57 -285 63
-27 3 -61 8 -75 10 -128 22 -207 28 -410 32 -130 3 -239 2 -242 -2z m582 -138
c281 -41 445 -82 675 -168 119 -44 408 -181 465 -220 19 -13 55 -35 80 -50
135 -78 349 -247 504 -397 496 -482 792 -1077 893 -1795 22 -152 24 -571 5
-726 -119 -947 -635 -1749 -1444 -2244 -749 -458 -1677 -561 -2533 -279 -668
219 -1255 689 -1629 1304 -414 681 -541 1526 -345 2304 206 819 723 1494 1465
1915 333 188 729 315 1124 359 52 6 109 13 125 15 69 10 516 -4 615 -18z
m2625 -2046 c3 -5 1 -10 -4 -10 -6 0 -11 5 -11 10 0 6 2 10 4 10 3 0 8 -4 11
-10z"/>
<path d="M2940 6139 c-346 -25 -714 -123 -1030 -275 -216 -104 -372 -201 -570
-353 -123 -95 -412 -388 -504 -511 -42 -58 -83 -112 -89 -120 -29 -36 -119
-183 -171 -280 -64 -116 -169 -361 -209 -485 -191 -585 -192 -1243 -2 -1819
114 -349 263 -627 494 -926 69 -89 329 -356 419 -431 640 -529 1447 -766 2260
-664 499 62 976 254 1380 554 133 98 166 126 297 250 684 648 1015 1627 869
2571 -76 494 -270 942 -588 1360 -95 125 -377 410 -496 501 -612 471 -1304
682 -2060 628z m180 -197 c0 -9 -10 -22 -22 -27 -25 -11 -25 0 -13 -185 6
-106 5 -118 -14 -148 -34 -53 -75 -72 -160 -72 -57 0 -82 5 -112 22 -50 28
-65 69 -81 223 l-13 120 -28 3 c-20 3 -27 8 -25 20 2 12 18 19 58 24 100 11
160 9 160 -6 0 -8 -11 -17 -25 -20 -29 -7 -30 -14 -14 -154 12 -119 32 -178
62 -188 61 -20 130 14 146 71 9 34 -9 250 -23 273 -4 7 -18 12 -32 12 -17 0
-24 5 -24 19 0 16 8 21 48 24 108 8 112 8 112 -11z m270 2 c8 -3 58 -69 110
-148 l95 -144 6 36 c4 21 10 70 13 110 l7 73 -30 10 c-17 6 -31 15 -31 19 0
18 24 22 96 15 64 -6 74 -9 74 -26 0 -14 -7 -19 -25 -19 -13 0 -28 -8 -33 -17
-5 -10 -17 -96 -27 -190 -16 -148 -21 -174 -37 -179 -10 -3 -23 -2 -28 1 -6 4
-62 84 -125 177 -95 143 -115 167 -119 147 -11 -57 -26 -221 -20 -230 3 -6 17
-14 30 -19 13 -5 24 -17 24 -26 0 -14 -9 -15 -77 -9 -74 7 -103 17 -103 36 0
5 10 9 23 9 12 0 27 4 34 8 12 7 43 213 43 284 0 32 -5 40 -30 53 -30 16 -36
26 -23 39 7 7 122 -1 153 -10z m-890 -138 c88 -58 125 -193 80 -289 -64 -135
-255 -170 -360 -65 -102 102 -90 263 25 345 71 50 187 54 255 9z m1632 -20
c78 -38 83 -45 68 -106 -9 -39 -16 -50 -31 -50 -11 0 -21 6 -23 13 -2 6 -9 31
-15 54 -20 73 -109 100 -168 52 -37 -29 -79 -111 -88 -170 -13 -85 38 -159
109 -159 20 0 27 8 40 47 16 48 16 48 -9 66 -27 20 -33 47 -10 47 13 0 75 -20
158 -52 32 -12 36 -35 5 -40 -16 -2 -26 -17 -41 -60 l-19 -58 -63 0 c-156 0
-284 101 -285 225 0 92 40 165 110 203 63 33 178 28 262 -12z m-2118 -95 c3
-4 -1 -17 -9 -27 -11 -14 -14 -52 -14 -149 -1 -127 0 -131 29 -178 26 -41 33
-46 50 -37 27 15 40 12 40 -8 0 -19 -3 -21 -112 -81 -69 -38 -79 -41 -85 -25
-4 10 0 22 10 29 10 7 17 18 17 26 -1 30 -50 93 -92 116 -148 85 -190 105
-214 99 -19 -5 -24 -2 -24 11 0 24 187 130 202 115 7 -7 3 -16 -11 -28 -11
-10 -21 -21 -21 -24 0 -7 78 -60 88 -60 4 0 18 -9 32 -20 14 -11 28 -20 33
-20 4 0 7 43 7 95 l0 95 -30 -6 c-49 -10 -37 20 23 54 55 32 72 37 81 23z
m2514 -90 c20 -10 46 -28 56 -40 11 -12 27 -21 36 -21 28 0 31 -27 8 -75 -29
-59 -58 -62 -58 -5 0 21 -5 50 -11 63 -17 38 -66 58 -101 43 -31 -14 -21 -63
28 -145 51 -83 63 -134 44 -181 -36 -87 -181 -78 -265 16 -17 19 -40 34 -53
34 -29 0 -28 16 9 84 39 71 64 74 65 6 0 -75 3 -84 35 -117 34 -37 74 -43 95
-15 21 27 17 54 -16 105 -60 95 -73 128 -67 176 7 63 41 91 108 91 29 0 65 -8
87 -19z m-1053 -281 c175 -27 255 -47 395 -95 771 -264 1319 -938 1426 -1755
19 -151 15 -488 -9 -615 -62 -329 -158 -576 -321 -825 -349 -532 -892 -872
-1521 -955 -475 -62 -999 49 -1400 298 -283 175 -541 438 -715 727 -57 94 -77
134 -140 275 -35 78 -68 182 -98 305 -52 216 -57 258 -57 520 0 210 4 263 23
370 122 677 546 1244 1162 1551 202 101 404 164 635 199 168 26 458 26 620 0z
m1530 -60 l69 -69 -58 -117 c-31 -64 -55 -119 -52 -121 3 -3 55 18 117 46 61
28 117 51 123 51 22 0 129 -117 123 -134 -5 -13 -11 -14 -32 -4 -24 11 -30 8
-88 -49 -34 -34 -86 -84 -115 -112 -50 -47 -53 -53 -46 -86 4 -26 3 -35 -7
-35 -17 0 -149 130 -149 147 0 19 18 25 39 12 17 -11 28 -4 97 59 84 76 150
142 142 142 -4 0 -154 -66 -290 -129 -56 -25 -68 -26 -68 -6 0 13 44 121 129
320 l22 50 -115 -114 c-102 -102 -128 -141 -95 -141 5 0 9 -9 9 -20 0 -11 -7
-20 -15 -20 -15 0 -115 97 -115 112 0 17 23 19 46 4 24 -16 25 -16 142 98 107
105 116 117 105 135 -17 27 -16 51 0 51 7 0 44 -31 82 -70z m-3646 -60 c52
-44 31 -75 -35 -50 -25 10 -31 7 -71 -32 -24 -23 -43 -47 -42 -53 1 -5 23 -30
50 -53 l48 -44 26 27 c25 24 26 29 15 56 -9 22 -10 33 -2 41 8 8 24 -1 59 -31
57 -50 69 -69 55 -83 -8 -8 -20 -7 -42 2 -30 12 -33 11 -57 -14 l-25 -28 48
-49 c26 -27 55 -49 64 -48 8 0 33 21 54 46 l40 44 -13 46 c-10 40 -10 49 4 62
15 15 18 14 36 -9 11 -14 30 -36 40 -48 20 -23 20 -24 2 -45 -58 -68 -239
-247 -250 -247 -16 0 -17 32 -3 46 11 11 2 21 -153 172 -69 68 -80 75 -97 64
-27 -17 -40 -15 -40 5 0 18 228 253 244 253 6 -1 26 -14 45 -30z m-347 -338
c-2 -26 20 -63 113 -201 73 -108 113 -175 109 -185 -8 -22 -37 -21 -257 11
-181 25 -188 26 -201 8 -13 -17 -46 -16 -46 2 0 5 24 44 53 88 56 85 94 111
83 58 l-7 -30 132 -22 c72 -12 133 -20 135 -18 2 1 -31 51 -74 110 l-76 106
-22 -20 c-21 -19 -44 -19 -44 0 0 4 18 36 40 70 43 66 67 75 62 23z m4456
-141 c28 -43 52 -83 52 -90 0 -16 -35 -14 -49 3 -10 12 -34 0 -149 -77 -133
-89 -137 -93 -134 -124 6 -56 -21 -39 -77 46 -28 43 -51 84 -51 89 0 20 21 24
40 7 18 -16 25 -12 152 72 128 85 133 89 130 121 -4 57 28 40 86 -47z m172
-297 c53 -114 53 -156 1 -100 l-23 24 -76 -35 c-224 -102 -224 -102 -217 -126
4 -12 15 -35 24 -52 15 -27 23 -30 71 -33 52 -3 80 -15 80 -33 0 -12 -26 -24
-88 -43 l-53 -15 -56 117 c-83 176 -95 204 -85 214 10 10 42 0 42 -13 0 -17
21 -9 166 57 137 63 144 68 144 95 0 55 28 31 70 -57z m-4548 -135 c-1 -14
-15 -56 -31 -94 -31 -73 -61 -98 -61 -50 0 25 -2 26 -51 23 l-51 -3 -23 -58
-24 -57 37 -35 37 -35 17 23 c13 17 20 19 29 10 9 -9 6 -26 -14 -75 -26 -65
-53 -85 -50 -36 2 27 -21 52 -147 163 -30 26 -79 70 -108 97 -53 50 -53 50
-40 85 l13 35 209 -3 c208 -4 209 -4 224 19 19 28 38 23 34 -9z m4725 -314
c12 -44 22 -92 22 -107 1 -36 -22 -37 -38 -2 -13 30 0 31 -181 -16 -166 -43
-160 -39 -147 -95 12 -51 33 -68 100 -80 30 -6 37 -12 37 -30 0 -19 -7 -23
-46 -29 -104 -14 -94 -25 -137 147 -46 183 -47 190 -24 195 10 2 17 -3 17 -11
0 -27 28 -26 162 9 169 43 178 47 178 80 0 19 4 25 18 22 12 -2 23 -26 39 -83z
m-4959 -136 c34 -11 62 -24 61 -27 0 -4 -15 -81 -32 -172 -26 -132 -36 -166
-50 -168 -12 -2 -17 3 -17 17 0 23 -20 36 -70 44 -19 3 -84 15 -145 27 l-110
20 -23 -27 c-18 -23 -24 -25 -31 -13 -6 8 -8 17 -7 20 2 3 11 49 21 103 15 78
21 97 34 95 9 -2 16 -13 16 -25 0 -13 5 -27 11 -33 7 -7 292 -69 321 -70 1 0
6 23 12 50 13 59 4 80 -46 111 -31 19 -42 47 -26 62 9 10 12 9 81 -14z m5043
-289 c14 -67 15 -173 2 -177 -7 -3 -17 7 -23 21 -5 14 -14 26 -18 26 -25 0
-309 -31 -319 -35 -7 -2 -13 -16 -13 -30 0 -20 -4 -26 -17 -23 -30 6 -45 206
-16 215 7 3 15 -7 19 -21 4 -19 13 -26 29 -26 39 0 297 30 306 36 5 3 9 13 9
23 0 45 32 38 41 -9z m-5197 -151 c21 -6 58 -29 82 -51 52 -48 68 -95 62 -185
-8 -120 -92 -196 -217 -196 -138 0 -222 83 -221 220 1 64 19 124 47 155 49 55
160 81 247 57z m4841 -148 c6 -26 12 -31 48 -35 85 -11 262 -16 273 -9 6 5 16
18 23 31 22 42 41 27 41 -32 0 -106 0 -106 -146 -213 -74 -54 -134 -101 -134
-104 0 -8 189 -21 201 -13 6 3 14 17 19 30 5 13 16 24 25 24 17 0 19 -30 8
-118 -4 -41 -9 -52 -22 -50 -9 2 -18 17 -21 33 l-5 30 -181 11 c-100 6 -187
15 -193 18 -32 20 -6 49 154 168 127 94 161 124 148 129 -10 3 -67 8 -128 10
l-109 4 -9 -32 c-6 -18 -16 -33 -24 -33 -11 0 -14 17 -12 83 1 45 3 85 6 90
10 17 32 5 38 -22z m-4676 -437 c18 -73 21 -98 11 -107 -9 -9 -16 -6 -31 15
-17 23 -24 25 -47 18 -15 -5 -81 -21 -146 -36 -137 -31 -134 -36 29 -53 208
-23 228 -26 232 -38 2 -6 -35 -41 -84 -77 -48 -36 -92 -69 -98 -74 -5 -4 -38
-27 -73 -51 -34 -24 -61 -45 -60 -46 7 -6 294 71 300 80 4 6 8 23 8 38 0 21 4
28 17 25 17 -3 33 -44 47 -120 6 -34 5 -38 -14 -38 -11 0 -20 6 -20 14 0 35
-25 34 -180 -5 -85 -21 -156 -39 -157 -39 -2 0 -3 -16 -3 -36 0 -28 -4 -35
-17 -32 -12 2 -23 28 -39 97 -13 52 -21 98 -19 101 2 4 52 38 109 76 58 38
106 72 106 75 0 3 -60 12 -133 19 l-134 13 -21 85 c-12 46 -19 88 -16 93 9 15
34 10 34 -6 0 -27 26 -27 137 0 181 44 203 53 203 81 0 16 6 24 18 24 15 0 23
-19 41 -96z m4836 -113 c49 -22 99 -77 115 -127 24 -71 -1 -198 -55 -280 -13
-20 -18 -21 -64 -11 -44 8 -51 13 -51 33 0 18 7 25 28 30 48 10 71 22 87 48
21 32 22 89 1 121 -23 35 -92 72 -162 86 -56 11 -64 11 -106 -10 -43 -20 -78
-66 -78 -100 0 -15 39 -38 77 -46 29 -6 34 -3 44 19 23 50 57 27 40 -27 -6
-17 -19 -59 -29 -92 -19 -61 -44 -80 -50 -38 -3 17 -16 26 -60 40 l-57 18 0
85 c0 67 5 95 23 131 26 54 70 100 114 122 44 22 133 21 183 -2z m-4801 -628
c67 -52 100 -128 76 -172 -8 -16 -7 -27 7 -48 l18 -26 12 42 c7 23 29 65 50
93 l37 51 14 -33 c38 -94 31 -182 -19 -224 l-28 -24 47 -62 47 -61 7 41 c9 49
56 140 74 140 14 0 54 -111 54 -152 0 -37 -24 -93 -44 -105 -13 -7 -7 -18 35
-61 27 -28 52 -52 54 -52 3 0 5 16 5 35 0 19 11 60 25 91 30 67 39 64 80 -27
30 -67 29 -121 -2 -168 -16 -24 -15 -26 33 -68 56 -49 67 -52 58 -19 -6 26 23
143 38 152 11 7 27 -12 64 -73 28 -46 37 -134 16 -155 -7 -7 -12 -17 -12 -23
0 -5 45 -39 100 -74 55 -35 100 -65 100 -67 0 -15 -15 -34 -27 -34 -8 0 -58
30 -110 66 l-95 66 -23 -22 c-41 -38 -111 -39 -189 -2 -36 17 -66 35 -66 40 0
13 113 62 144 62 14 0 26 3 25 8 -1 4 -23 27 -50 51 l-48 43 -27 -21 c-33 -26
-110 -28 -157 -5 -51 26 -99 66 -90 74 14 13 114 40 151 40 l33 0 -53 59 c-48
54 -54 57 -65 41 -17 -23 -74 -33 -120 -21 -41 12 -132 79 -133 98 0 18 44 27
126 28 62 0 70 2 60 15 -6 8 -28 39 -50 68 -37 51 -39 52 -53 32 -11 -15 -25
-20 -58 -20 -62 0 -87 12 -147 71 -48 47 -51 52 -33 59 30 13 153 12 177 -1
16 -9 19 -8 14 3 -3 7 -9 21 -12 31 -4 9 -16 17 -30 17 -33 0 -92 55 -104 98
-15 55 -13 142 3 142 8 0 35 -17 61 -37z m4596 -15 c0 -29 -5 -70 -10 -90 -12
-40 -70 -98 -99 -98 -10 0 -26 -11 -35 -25 -21 -32 -20 -38 3 -25 21 11 118
12 164 1 l28 -6 -36 -43 c-47 -54 -101 -82 -159 -82 -34 0 -48 5 -59 20 -14
20 -16 17 -64 -47 l-49 -68 60 0 c72 0 136 -12 136 -25 0 -12 -47 -56 -90 -83
-45 -28 -129 -30 -160 -2 -20 18 -21 18 -69 -36 l-49 -54 52 -7 c60 -8 129
-31 133 -44 1 -5 -21 -24 -50 -43 -69 -46 -153 -55 -199 -21 l-30 22 -41 -38
c-22 -22 -47 -45 -55 -51 -11 -11 -8 -13 19 -13 33 0 149 -47 149 -61 0 -4
-29 -22 -65 -40 -54 -26 -73 -31 -115 -27 -35 4 -59 13 -75 28 l-25 24 -28
-21 c-100 -78 -165 -116 -180 -107 -9 6 -17 15 -19 21 -2 5 42 39 97 74 95 60
113 80 90 94 -5 3 -10 32 -10 64 0 50 5 66 37 115 21 31 40 56 44 56 13 0 41
-86 42 -129 1 -22 6 -41 10 -41 5 0 30 18 57 41 47 40 48 41 30 59 -10 10 -22
39 -25 63 -6 37 -2 56 20 106 39 86 49 92 75 41 12 -23 24 -64 27 -91 3 -27 8
-49 12 -49 3 0 27 23 53 52 40 44 45 54 32 61 -20 11 -44 68 -44 105 0 41 40
152 54 152 18 0 66 -91 74 -142 l7 -42 47 63 46 62 -28 28 c-49 49 -55 102
-23 205 l16 50 24 -30 c35 -43 64 -101 66 -135 l2 -30 23 28 c13 17 19 34 15
43 -11 23 -8 74 6 109 14 33 103 111 127 111 10 0 14 -15 14 -52z m-1211
-1014 c13 -9 29 -32 37 -50 35 -83 4 -149 -87 -192 -32 -15 -59 -31 -59 -37 0
-5 7 -29 17 -53 16 -42 17 -43 57 -40 31 2 41 -1 41 -12 0 -13 -169 -88 -202
-89 -18 -1 -16 30 3 43 14 10 9 29 -42 161 -32 83 -59 152 -61 155 -2 2 -16 4
-31 5 -54 0 -28 28 63 68 50 21 101 43 115 47 44 15 124 11 149 -6z m-1938
-31 c89 -47 96 -57 79 -117 -10 -37 -17 -46 -35 -46 -19 0 -23 7 -28 47 -9 86
-93 130 -167 87 -63 -38 -119 -172 -101 -241 13 -46 42 -80 76 -89 36 -9 46
-2 65 46 l18 45 -26 22 c-21 17 -24 24 -15 34 18 18 193 -57 193 -84 0 -13 -6
-17 -22 -15 -19 2 -27 -6 -47 -49 -14 -29 -33 -55 -42 -58 -30 -10 -141 15
-184 40 -58 34 -101 83 -119 138 -20 59 -20 61 -1 125 31 102 101 151 217 152
58 0 76 -5 139 -37z m296 -97 c126 -25 153 -35 190 -69 52 -46 33 -145 -32
-172 -40 -17 -40 -18 -21 -48 8 -12 19 -46 26 -75 7 -31 20 -58 31 -65 11 -7
19 -20 19 -31 0 -16 -5 -17 -47 -11 -89 13 -113 35 -113 103 0 53 -20 103 -46
114 -20 9 -27 9 -34 -2 -13 -21 -23 -124 -12 -128 26 -8 46 -31 36 -41 -11
-12 -190 21 -207 38 -14 14 1 31 27 31 22 0 25 9 55 161 27 132 30 163 19 170
-7 5 -16 9 -20 9 -11 0 -10 40 0 40 5 0 63 -11 129 -24z m1223 -2 c0 -9 -9
-18 -19 -21 -29 -7 -30 -20 -10 -123 35 -180 25 -233 -53 -284 -41 -27 -163
-32 -208 -9 -49 26 -67 65 -94 202 -12 67 -25 124 -28 127 -4 3 -14 7 -25 8
-10 2 -19 10 -21 18 -3 17 56 34 156 45 42 5 52 3 52 -9 0 -8 -11 -20 -25 -26
-27 -13 -28 -1 6 -167 23 -116 32 -140 64 -161 48 -31 135 15 150 80 3 12 -5
77 -17 146 l-23 125 -33 3 c-23 2 -32 8 -32 21 0 14 12 21 53 28 82 16 107 15
107 -3z m-595 -78 c28 -13 58 -32 67 -42 49 -55 65 -174 33 -249 -37 -90 -109
-130 -224 -123 -123 7 -191 76 -199 206 -7 107 50 193 146 222 53 16 125 11
177 -14z"/>
<path d="M2278 5757 c-14 -12 -29 -32 -33 -45 -15 -53 44 -221 94 -266 28 -25
84 -26 110 -2 42 38 37 122 -14 234 -26 57 -39 72 -72 90 -32 18 -55 15 -85
-11z"/>
<path d="M3025 5280 c-595 -40 -1161 -345 -1518 -819 -277 -367 -419 -797
-419 -1266 0 -237 23 -397 89 -615 134 -444 434 -848 822 -1109 269 -181 544
-286 896 -342 116 -19 455 -16 582 4 368 59 704 206 988 432 88 69 250 229
320 315 162 198 305 462 378 700 70 225 91 364 91 610 0 219 -13 335 -59 520
-202 801 -861 1411 -1675 1549 -172 29 -292 34 -495 21z m353 -60 c518 -56
976 -296 1328 -698 579 -661 654 -1635 186 -2390 -113 -181 -292 -386 -452
-515 -658 -532 -1587 -594 -2318 -156 -48 29 -98 61 -112 71 -248 185 -385
327 -551 573 -72 108 -167 309 -217 465 -119 366 -128 825 -23 1185 102 351
259 620 509 871 292 293 659 487 1078 569 172 34 396 43 572 25z"/>
<path d="M1887 4353 c-12 -12 -8 -647 4 -684 15 -45 65 -97 114 -120 37 -17
75 -19 573 -19 l532 0 0 325 c0 312 -1 328 -21 368 -28 55 -55 84 -104 110
-39 22 -49 22 -566 25 -289 1 -529 -1 -532 -5z"/>
<path d="M3405 4351 c-72 -18 -118 -56 -154 -128 -20 -40 -21 -56 -21 -368 l0
-325 530 0 c589 0 571 -2 641 67 57 55 60 79 57 438 l-3 320 -510 2 c-280 0
-523 -2 -540 -6z"/>
<path d="M2115 3387 c-94 -37 -162 -98 -205 -183 l-25 -49 0 -575 0 -575 345
0 345 0 5 500 c4 394 8 505 19 525 21 39 70 79 105 85 17 3 239 5 493 3 451
-3 462 -3 490 -24 15 -12 37 -36 48 -55 19 -32 20 -57 25 -534 l5 -500 345 0
345 0 0 575 0 575 -25 49 c-34 67 -94 128 -160 162 l-55 29 -1035 2 c-777 1
-1042 -1 -1065 -10z"/>
<path d="M3110 3013 c-236 -39 -411 -238 -410 -468 1 -121 45 -230 132 -321
90 -95 205 -144 333 -144 137 0 235 41 337 140 225 220 166 588 -120 743 -78
42 -193 63 -272 50z"/>
<path d="M755 4137 c33 -31 63 -53 67 -51 3 2 12 21 18 40 15 44 5 54 -55 54
-22 0 -51 3 -65 6 -20 4 -13 -6 35 -49z"/>
<path d="M538 3276 c-70 -25 -88 -42 -88 -86 0 -68 56 -100 175 -100 77 0 133
16 167 47 25 22 24 85 -1 107 -46 42 -179 58 -253 32z"/>
<path d="M4102 992 c-13 -9 -7 -30 34 -119 8 -17 14 -36 14 -42 0 -19 38 -12
60 12 26 27 22 86 -8 126 -20 27 -74 39 -100 23z"/>
<path d="M2645 795 c-9 -41 -14 -79 -10 -85 8 -13 61 -13 85 0 27 14 44 81 29
113 -11 24 -47 47 -73 47 -9 0 -20 -27 -31 -75z"/>
<path d="M3106 783 c-46 -71 -43 -235 5 -297 44 -56 137 -22 153 55 11 58 6
169 -9 206 -24 57 -43 73 -86 73 -34 0 -42 -5 -63 -37z"/>
<path d="M470 1530 c0 -5 5 -10 11 -10 5 0 7 5 4 10 -3 6 -8 10 -11 10 -2 0
-4 -4 -4 -10z"/>
</g>
</svg>
